<?xml version="1.0" standalone="no"?>
<!DOCTYPE svg PUBLIC "-//W3C//DTD SVG 20010904//EN"
 "http://www.w3.org/TR/2001/REC-SVG-20010904/DTD/svg10.dtd">
<svg version="1.0" xmlns="http://www.w3.org/2000/svg"
 width="225.000000pt" height="225.000000pt" viewBox="0 0 225.000000 225.000000"
 preserveAspectRatio="xMidYMid meet">

<g transform="translate(0.000000,225.000000) scale(0.100000,-0.100000)"
fill="#000000" stroke="none">
<path d="M629 2033 c-40 -21 -61 -40 -84 -77 l-30 -49 0 -782 0 -782 30 -49
c23 -37 44 -56 84 -76 l55 -28 441 0 441 0 55 28 c40 20 61 39 84 76 l30 49 0
782 0 782 -30 48 c-22 36 -45 57 -84 77 l-53 28 -442 0 -442 0 -55 -27z m979
-61 c71 -51 67 -2 67 -847 0 -845 4 -796 -67 -847 l-33 -23 -440 -3 c-414 -2
-442 -1 -475 16 -19 11 -45 34 -57 52 l-23 33 0 772 0 772 23 33 c12 18 38 41
57 52 33 17 61 18 475 16 l440 -3 33 -23z"/>
<path d="M677 1882 c-24 -27 -25 -263 -1 -286 14 -14 68 -16 449 -16 l434 0
15 22 c23 32 23 244 0 276 l-15 22 -433 0 c-407 0 -434 -1 -449 -18z m853
-142 l0 -100 -405 0 -405 0 0 100 0 100 405 0 405 0 0 -100z"/>
<path d="M677 1243 c-14 -13 -8 -140 7 -152 9 -7 41 -11 83 -9 l68 3 3 83 3
82 -79 0 c-43 0 -82 -3 -85 -7z"/>
<path d="M924 1237 c-3 -8 -4 -45 -2 -83 l3 -69 80 0 80 0 3 83 3 82 -81 0
c-58 0 -82 -4 -86 -13z"/>
<path d="M1167 1243 c-12 -11 -8 -138 5 -151 7 -7 40 -12 78 -12 38 0 71 5 78
12 12 12 17 114 6 142 -5 13 -22 16 -83 16 -43 0 -81 -3 -84 -7z"/>
<path d="M1409 1238 c-3 -60 0 -139 6 -147 10 -17 140 -14 154 3 7 9 11 41 9
83 l-3 68 -82 3 c-62 2 -83 0 -84 -10z"/>
<path d="M674 1017 c-3 -8 -4 -45 -2 -83 l3 -69 79 -3 c44 -2 82 1 85 7 3 5 4
42 1 83 l-5 73 -78 3 c-59 2 -79 0 -83 -11z"/>
<path d="M924 1017 c-3 -8 -4 -45 -2 -83 l3 -69 80 0 80 0 0 80 0 80 -78 3
c-59 2 -79 0 -83 -11z"/>
<path d="M1165 1007 c-4 -13 -5 -50 -3 -82 l3 -60 79 -3 c57 -2 82 1 87 10 13
20 11 132 -3 146 -7 7 -42 12 -85 12 -67 0 -73 -2 -78 -23z"/>
<path d="M1415 1020 c-6 -9 -9 -87 -6 -148 1 -10 22 -12 84 -10 l82 3 0 80 0
80 -77 3 c-48 2 -79 -1 -83 -8z"/>
<path d="M681 796 c-7 -9 -11 -41 -9 -83 l3 -68 83 -3 c61 -2 82 0 83 10 3 60
0 139 -6 147 -10 17 -140 14 -154 -3z"/>
<path d="M924 797 c-3 -8 -4 -45 -2 -83 l3 -69 83 -3 83 -3 -3 83 -3 83 -78 3
c-59 2 -79 0 -83 -11z"/>
<path d="M1171 796 c-7 -9 -11 -41 -9 -83 l3 -68 79 -3 c57 -2 82 1 87 10 13
20 11 132 -3 146 -17 17 -142 16 -157 -2z"/>
<path d="M1416 802 c-3 -5 -6 -91 -6 -192 -1 -142 1 -185 12 -191 18 -12 115
-11 139 1 18 10 19 23 19 188 0 125 -4 182 -12 190 -14 14 -144 17 -152 4z"/>
<path d="M677 573 c-10 -9 -8 -135 2 -151 5 -9 29 -12 82 -10 l74 3 3 83 3 82
-79 0 c-43 0 -82 -3 -85 -7z"/>
<path d="M924 567 c-3 -8 -4 -45 -2 -83 l3 -69 80 0 80 0 0 80 0 80 -78 3
c-59 2 -79 0 -83 -11z"/>
<path d="M1167 573 c-9 -8 -9 -126 -1 -147 5 -13 22 -16 78 -16 43 0 77 5 84
12 12 12 17 114 6 142 -5 13 -22 16 -83 16 -43 0 -81 -3 -84 -7z"/>
</g>
</svg>
