<svg width="124" height="118" viewBox="0 0 124 118" fill="none" xmlns="http://www.w3.org/2000/svg">
<ellipse cx="62" cy="59" rx="62" ry="59" fill="#FF0000"/>
<path d="M62.1856 29C52.7846 29 45.0928 37.3729 45.0928 47.6896C45.0928 58.0062 52.7846 66.3791 62.1856 66.3791C71.5867 66.3791 79.2784 58.0062 79.2784 47.6896C79.2784 37.3729 71.5867 29 62.1856 29ZM44.3236 66.3791C35.2644 66.7529 28 73.2569 28 81.3307V88.8066H96.3712V81.3307C96.3712 73.2569 89.1922 66.7529 80.0476 66.3791C75.4325 70.9394 69.1082 73.8549 62.1856 73.8549C55.263 73.8549 48.9387 70.9394 44.3236 66.3791Z" fill="black"/>
</svg>
